<svg width="320" height="41" viewBox="0 0 320 41" fill="none" xmlns="http://www.w3.org/2000/svg">
<path d="M307.209 40.4225H296.815V8.08451H284.688V0H319.336V8.08451H307.209V40.4225Z" fill="url(#paint0_linear_60_1562)"/>
<path d="M282.969 40.4225H250.92V0H282.969V8.08451H261.314V15.8803H278.349V23.9648H261.314V32.338H282.969V40.4225Z" fill="url(#paint1_linear_60_1562)"/>
<path d="M209.922 0H233.021C236.793 0 239.565 0.866197 241.336 2.59859C243.107 4.29249 243.992 6.89108 243.992 10.3944C243.992 12.7042 243.492 14.5906 242.491 16.0535C241.49 17.4779 240.258 18.4789 238.795 19.0563C241.914 19.9033 244.031 21.9822 245.147 25.293C245.532 26.4864 245.725 27.8723 245.725 29.4507C245.725 33.2235 244.839 35.9953 243.068 37.7662C241.298 39.5371 238.526 40.4225 234.753 40.4225H209.922V0ZM235.33 27.7183C235.33 25.4085 234.176 24.2535 231.866 24.2535H220.316V32.338H231.866C234.176 32.338 235.33 31.1831 235.33 28.8732V27.7183ZM233.598 11.5493C233.598 9.23944 232.443 8.08451 230.133 8.08451H220.316V16.169H230.133C232.443 16.169 233.598 15.0141 233.598 12.7042V11.5493Z" fill="url(#paint2_linear_60_1562)"/>
<path d="M187.983 39.8451C179.398 40.615 172.276 41 166.617 41C162.844 41 160.072 40.1146 158.301 38.3437C156.53 36.5728 155.645 33.8009 155.645 30.0282V11.5493C155.645 7.50704 156.549 4.58122 158.359 2.77183C160.207 0.923944 163.152 0 167.194 0H187.983V8.08451H169.504C167.194 8.08451 166.039 9.23944 166.039 11.5493V30.0282C166.039 30.9136 166.289 31.6258 166.79 32.1648C167.329 32.6653 168.003 32.9155 168.811 32.9155C169.619 32.9155 170.505 32.9155 171.467 32.9155C172.43 32.877 173.431 32.8385 174.47 32.8C175.51 32.7615 176.549 32.723 177.588 32.6845C178.666 32.646 180.033 32.569 181.688 32.4535C183.382 32.338 185.48 32.2033 187.983 32.0493V39.8451Z" fill="url(#paint3_linear_60_1562)"/>
<path d="M116.901 32.0493C127.45 32.6268 134.591 32.9155 138.325 32.9155C139.211 32.9155 139.904 32.6653 140.404 32.1648C140.943 31.6258 141.213 30.9136 141.213 30.0282V24.831H127.931C123.889 24.831 120.944 23.9263 119.096 22.1169C117.286 20.269 116.382 17.3239 116.382 13.2817V11.5493C116.382 7.50704 117.286 4.58122 119.096 2.77183C120.944 0.923944 123.889 0 127.931 0H148.2V8.08451H130.241C127.931 8.08451 126.776 9.23944 126.776 11.5493V12.7042C126.776 15.0141 127.931 16.169 130.241 16.169H140.635C144.408 16.169 147.18 17.0545 148.951 18.8254C150.722 20.5962 151.607 23.3681 151.607 27.1408V30.0282C151.607 33.8009 150.722 36.5728 148.951 38.3437C147.18 40.1146 144.408 41 140.635 41C138.672 41 136.593 40.9615 134.399 40.8845L129.086 40.6535C125.159 40.461 121.098 40.1915 116.901 39.8451V32.0493Z" fill="url(#paint4_linear_60_1562)"/>
<path d="M84.3347 40.4225H73.0741L88.3769 0H99.9262L115.229 40.4225H103.968L101.37 33.2042H86.9332L84.3347 40.4225ZM89.5318 25.6972H98.7713L94.1516 12.1268L89.5318 25.6972Z" fill="url(#paint5_linear_60_1562)"/>
<path d="M51.9831 32.338H73.0606V40.4225H41.5887V0H51.9831V32.338Z" fill="url(#paint6_linear_60_1562)"/>
<path d="M35.8028 39.5563C26.7944 40.5188 18.5174 41 10.9718 41C7.19906 41 4.42723 40.1146 2.65634 38.3437C0.885446 36.5728 0 33.8009 0 30.0282V11.5493C0 7.50704 0.904695 4.58122 2.71408 2.77183C4.56197 0.923944 7.50704 0 11.5493 0H32.338V8.08451H13.8592C11.5493 8.08451 10.3944 9.23944 10.3944 11.5493V30.0282C10.3944 30.9136 10.6446 31.6258 11.1451 32.1648C11.684 32.6653 12.3962 32.9155 13.2817 32.9155C17.7089 32.9155 21.7512 32.8192 25.4085 32.6268V24.2535H17.9014V17.3239H35.8028V39.5563Z" fill="url(#paint7_linear_60_1562)"/>
<defs>
<linearGradient id="paint0_linear_60_1562" x1="302.012" y1="0" x2="302.012" y2="40.4225" gradientUnits="userSpaceOnUse">
<stop stop-color="white"/>
<stop offset="1" stop-color="#004C5C" stop-opacity="0.71"/>
</linearGradient>
<linearGradient id="paint1_linear_60_1562" x1="266.944" y1="0" x2="266.944" y2="40.4225" gradientUnits="userSpaceOnUse">
<stop stop-color="white"/>
<stop offset="1" stop-color="#004C5C" stop-opacity="0.71"/>
</linearGradient>
<linearGradient id="paint2_linear_60_1562" x1="227.823" y1="0" x2="227.823" y2="40.4225" gradientUnits="userSpaceOnUse">
<stop stop-color="white"/>
<stop offset="1" stop-color="#004C5C" stop-opacity="0.71"/>
</linearGradient>
<linearGradient id="paint3_linear_60_1562" x1="171.814" y1="0" x2="171.814" y2="41" gradientUnits="userSpaceOnUse">
<stop stop-color="white"/>
<stop offset="1" stop-color="#004C5C" stop-opacity="0.71"/>
</linearGradient>
<linearGradient id="paint4_linear_60_1562" x1="133.994" y1="0" x2="133.994" y2="41" gradientUnits="userSpaceOnUse">
<stop stop-color="white"/>
<stop offset="1" stop-color="#004C5C" stop-opacity="0.71"/>
</linearGradient>
<linearGradient id="paint5_linear_60_1562" x1="94.1516" y1="0" x2="94.1516" y2="40.4225" gradientUnits="userSpaceOnUse">
<stop stop-color="white"/>
<stop offset="1" stop-color="#004C5C" stop-opacity="0.71"/>
</linearGradient>
<linearGradient id="paint6_linear_60_1562" x1="57.3247" y1="0" x2="57.3247" y2="40.4225" gradientUnits="userSpaceOnUse">
<stop stop-color="white"/>
<stop offset="1" stop-color="#004C5C" stop-opacity="0.71"/>
</linearGradient>
<linearGradient id="paint7_linear_60_1562" x1="17.9014" y1="0" x2="17.9014" y2="41" gradientUnits="userSpaceOnUse">
<stop stop-color="white"/>
<stop offset="1" stop-color="#004C5C" stop-opacity="0.71"/>
</linearGradient>
</defs>
</svg>
