<svg width="37" height="37" viewBox="0 0 37 37" fill="none" xmlns="http://www.w3.org/2000/svg">
<g clip-path="url(#clip0_241_5312)">
<path d="M18.1835 35.9045C27.4793 35.9045 35.0149 28.369 35.0149 19.0731C35.0149 9.77738 27.4793 2.2417 18.1835 2.2417C8.88773 2.2417 1.35205 9.77738 1.35205 19.0731C1.35205 28.369 8.88773 35.9045 18.1835 35.9045Z" stroke="#09FF4E" stroke-width="0.755255" stroke-linecap="round" stroke-linejoin="round"/>
<path d="M22.5903 14.47C22.4387 14.0412 22.2048 13.6513 21.9076 13.3192C21.2754 12.6128 20.3567 12.1683 19.3342 12.1683H16.6617C14.9596 12.1683 13.5798 13.5481 13.5798 15.2502C13.5798 16.6985 14.5883 17.9514 16.0031 18.2609L20.072 19.151C21.657 19.4977 22.7867 20.9023 22.7867 22.5249C22.7867 24.4317 21.241 25.9787 19.3342 25.9787H17.0324C15.5291 25.9787 14.2503 25.0179 13.7763 23.677" stroke="#09FF4E" stroke-width="0.755255" stroke-linecap="round" stroke-linejoin="round"/>
<path d="M18.1841 12.1679V8.71527" stroke="#09FF4E" stroke-width="0.755255" stroke-linecap="round" stroke-linejoin="round"/>
<path d="M18.1841 29.4304V25.9779" stroke="#09FF4E" stroke-width="0.755255" stroke-linecap="round" stroke-linejoin="round"/>
</g>
<defs>
<clipPath id="clip0_241_5312">
<rect width="36.2523" height="36.2523" fill="white" transform="translate(0.0566406 0.731201)"/>
</clipPath>
</defs>
</svg>
