<svg width="253" height="57" viewBox="0 0 253 57" fill="none" xmlns="http://www.w3.org/2000/svg">
<path d="M178.914 38.3835H173.672V22.0767H167.557V18H185.029V22.0767H178.914V38.3835Z" fill="#EAF4F7"/>
<path d="M166.69 38.3835H150.529V18H166.69V22.0767H155.771V26.0078H164.361V30.0845H155.771V34.3068H166.69V38.3835Z" fill="#EAF4F7"/>
<path d="M129.855 18H141.503C143.406 18 144.803 18.4368 145.696 19.3104C146.589 20.1645 147.036 21.4749 147.036 23.2415C147.036 24.4062 146.783 25.3575 146.279 26.0952C145.774 26.8134 145.153 27.3182 144.415 27.6094C145.988 28.0365 147.055 29.0847 147.618 30.7543C147.812 31.3561 147.909 32.0549 147.909 32.8508C147.909 34.7533 147.463 36.151 146.57 37.044C145.677 37.937 144.279 38.3835 142.377 38.3835H129.855V18ZM142.668 31.9773C142.668 30.8125 142.086 30.2301 140.921 30.2301H135.097V34.3068H140.921C142.086 34.3068 142.668 33.7244 142.668 32.5596V31.9773ZM141.794 23.8239C141.794 22.6591 141.212 22.0767 140.047 22.0767H135.097V26.1534H140.047C141.212 26.1534 141.794 25.571 141.794 24.4062V23.8239Z" fill="#EAF4F7"/>
<path d="M118.792 38.0923C114.463 38.4806 110.872 38.6747 108.018 38.6747C106.116 38.6747 104.718 38.2282 103.825 37.3352C102.932 36.4422 102.486 35.0445 102.486 33.142V23.8239C102.486 21.7855 102.942 20.3101 103.854 19.3977C104.786 18.4659 106.271 18 108.309 18H118.792V22.0767H109.474C108.309 22.0767 107.727 22.6591 107.727 23.8239V33.142C107.727 33.5885 107.853 33.9477 108.106 34.2194C108.377 34.4718 108.717 34.598 109.125 34.598C109.532 34.598 109.979 34.598 110.464 34.598C110.95 34.5786 111.454 34.5592 111.978 34.5398C112.503 34.5203 113.027 34.5009 113.551 34.4815C114.094 34.4621 114.784 34.4233 115.618 34.365C116.473 34.3068 117.531 34.2389 118.792 34.1612V38.0923Z" fill="#EAF4F7"/>
<path d="M82.9488 34.1612C88.268 34.4524 91.8691 34.598 93.7521 34.598C94.1986 34.598 94.548 34.4718 94.8004 34.2194C95.0722 33.9477 95.2081 33.5885 95.2081 33.142V30.5213H88.5106C86.4723 30.5213 84.9872 30.0651 84.0554 29.1527C83.143 28.2209 82.6868 26.7358 82.6868 24.6974V23.8239C82.6868 21.7855 83.143 20.3101 84.0554 19.3977C84.9872 18.4659 86.4723 18 88.5106 18H98.7315V22.0767H89.6754C88.5106 22.0767 87.9282 22.6591 87.9282 23.8239V24.4062C87.9282 25.571 88.5106 26.1534 89.6754 26.1534H94.9169C96.8193 26.1534 98.2171 26.5999 99.1101 27.4929C100.003 28.3859 100.45 29.7836 100.45 31.6861V33.142C100.45 35.0445 100.003 36.4422 99.1101 37.3352C98.2171 38.2282 96.8193 38.6747 94.9169 38.6747C93.9268 38.6747 92.8785 38.6553 91.772 38.6165L89.093 38.5C87.1129 38.4029 85.0648 38.267 82.9488 38.0923V34.1612Z" fill="#EAF4F7"/>
<path d="M66.5267 38.3835H60.8484L68.5651 18H74.3889L82.1055 38.3835H76.4273L75.1169 34.7436H67.8371L66.5267 38.3835ZM69.1474 30.9581H73.8065L71.477 24.1151L69.1474 30.9581Z" fill="#EAF4F7"/>
<path d="M50.213 34.3068H60.8416V38.3835H44.9716V18H50.213V34.3068Z" fill="#EAF4F7"/>
<path d="M42.054 37.9467C37.5114 38.432 33.3376 38.6747 29.5327 38.6747C27.6302 38.6747 26.2325 38.2282 25.3395 37.3352C24.4465 36.4422 24 35.0445 24 33.142V23.8239C24 21.7855 24.4562 20.3101 25.3686 19.3977C26.3004 18.4659 27.7855 18 29.8239 18H40.3068V22.0767H30.9886C29.8239 22.0767 29.2415 22.6591 29.2415 23.8239V33.142C29.2415 33.5885 29.3677 33.9477 29.62 34.2194C29.8918 34.4718 30.2509 34.598 30.6974 34.598C32.9299 34.598 34.9683 34.5495 36.8125 34.4524V30.2301H33.027V26.7358H42.054V37.9467Z" fill="#EAF4F7"/>
</svg>
